<svg width="93" height="71" viewBox="0 0 93 71" fill="none" xmlns="http://www.w3.org/2000/svg">
<path d="M90.0999 23.4765C89.6922 23.5007 89.2844 23.5007 88.8767 23.4805C89.2844 23.4158 89.6922 23.4158 90.0999 23.4765Z" fill="url(#paint0_linear_0_364)"/>
<path d="M86.0321 23.7557C85.8222 23.7989 85.611 23.8366 85.3957 23.8123C85.6043 23.7476 85.8168 23.7395 86.0321 23.7557Z" fill="url(#paint1_linear_0_364)"/>
<path d="M85.2584 23.8204C85.07 23.869 84.879 23.8973 84.6839 23.8744C84.8709 23.8043 85.0647 23.8097 85.2584 23.8204Z" fill="url(#paint2_linear_0_364)"/>
<path d="M88.0976 23.5588C87.9294 23.5965 87.7626 23.6383 87.5877 23.6127C87.7518 23.5426 87.9254 23.5493 88.0976 23.5588Z" fill="url(#paint3_linear_0_364)"/>
<path d="M87.328 23.6302C87.1624 23.6936 86.9902 23.7031 86.8166 23.6815C86.9835 23.6289 87.1544 23.6141 87.328 23.6302Z" fill="url(#paint4_linear_0_364)"/>
<path d="M84.4834 23.8865C84.3138 23.9297 84.1443 23.9607 83.9694 23.9338C84.1362 23.8663 84.3098 23.8744 84.4834 23.8865Z" fill="url(#paint5_linear_0_364)"/>
<path d="M86.6807 23.6923C86.5139 23.7463 86.343 23.7665 86.1681 23.7409C86.3349 23.6815 86.5071 23.6775 86.6807 23.6923Z" fill="url(#paint6_linear_0_364)"/>
<path d="M88.6184 23.5007C88.4731 23.5601 88.3237 23.5722 88.1703 23.5534C88.3156 23.4927 88.4663 23.4859 88.6184 23.5007Z" fill="url(#paint7_linear_0_364)"/>
<path d="M35.6975 56.5329L35.6894 56.514C35.8294 56.4965 35.9707 56.4871 36.1106 56.5073C35.9747 56.5545 35.8374 56.5585 35.6975 56.5329Z" fill="url(#paint8_linear_0_364)"/>
<path d="M90.2035 34.0398C90.1887 32.4022 90.1698 30.7646 90.1591 29.1284C90.147 27.3613 90.1416 25.5943 90.1322 23.8272C90.1322 23.7098 90.151 23.5898 90.0999 23.4765C89.6922 23.5007 89.2844 23.5007 88.8767 23.4805C88.7906 23.4873 88.7045 23.4927 88.6184 23.4994C88.4731 23.5588 88.3237 23.5709 88.1703 23.552C88.1461 23.5534 88.1218 23.5561 88.0976 23.5574C87.9294 23.5952 87.7626 23.637 87.5877 23.6114C87.5015 23.6168 87.4141 23.6235 87.328 23.6289C87.1624 23.6923 86.9902 23.7017 86.8166 23.6802C86.7722 23.6842 86.7265 23.6882 86.6807 23.6923C86.5139 23.7463 86.343 23.7665 86.1681 23.7409C86.1236 23.7449 86.0779 23.7503 86.0321 23.7557C85.8222 23.7989 85.611 23.8366 85.3957 23.8123C85.3499 23.815 85.3042 23.8177 85.2584 23.8218C85.07 23.8703 84.879 23.8987 84.6839 23.8757C84.6179 23.8798 84.5506 23.8838 84.4847 23.8879C84.3152 23.9311 84.1456 23.9621 83.9707 23.9351C83.8846 23.9405 83.7971 23.9459 83.7096 23.9513C83.4944 23.9391 83.2791 23.9351 83.0705 24.0052C83.0046 24.0093 82.9373 24.0133 82.8713 24.016C82.7381 24.0025 82.6049 23.9891 82.4771 24.0471C82.3493 24.0565 82.2201 24.0646 82.0923 24.074C81.9402 24.0727 81.7855 24.0457 81.6374 24.1078C81.4881 24.1186 81.3387 24.128 81.188 24.1388C80.931 24.1388 80.674 24.1172 80.4224 24.1968C80.3766 24.1995 80.3309 24.2022 80.2838 24.2049C80.0671 24.1995 79.8491 24.1766 79.6379 24.2494C79.5087 24.2561 79.3795 24.2642 79.2504 24.271C78.9516 24.2615 78.6516 24.2602 78.3569 24.329C78.2909 24.333 78.2237 24.3357 78.1564 24.3398C77.8765 24.3276 77.598 24.3209 77.3235 24.3937C77.2777 24.3964 77.2306 24.3978 77.1849 24.4005C76.8848 24.3924 76.5834 24.3789 76.2874 24.4531C76.1797 24.4585 76.0707 24.4639 75.9617 24.4693C75.3347 24.4639 74.709 24.5057 74.0846 24.5731C73.9339 24.5799 73.7845 24.588 73.6338 24.5947C73.3943 24.5853 73.1562 24.5677 72.9193 24.6284C72.6852 24.6406 72.4511 24.6514 72.2169 24.6635C71.8307 24.6487 71.4446 24.65 71.0611 24.7175C70.8485 24.7256 70.6345 24.7337 70.4206 24.7417C70.3048 24.7202 70.1905 24.704 70.0788 24.7647C69.6347 24.7822 69.1907 24.7984 68.7466 24.8159C68.5044 24.7849 68.2649 24.7984 68.0254 24.847C67.728 24.8578 67.4293 24.8685 67.1306 24.878C66.8669 24.8456 66.6058 24.8645 66.3461 24.9117C66.0891 24.9198 65.8334 24.9279 65.5764 24.9346C65.2077 24.9077 64.8404 24.9252 64.4744 24.9765C64.4286 24.9778 64.3815 24.9805 64.3358 24.9819C63.7141 24.9711 63.0925 24.9711 62.4721 25.0399C62.0886 25.0506 61.7038 25.0601 61.319 25.0709C61.0337 25.0412 60.7498 25.0453 60.4672 25.1006C60.3569 25.1033 60.2465 25.1073 60.1362 25.11C59.7863 25.11 59.4365 25.1019 59.0866 25.1113C58.7274 25.1208 58.3667 25.0965 58.0102 25.1626C57.9227 25.2665 57.9658 25.3906 57.9658 25.5039C57.9684 26.7853 57.9738 28.0668 57.9832 29.3483C57.9953 31.0493 58.0142 32.7502 58.0263 34.4526C58.029 34.7223 58.033 34.7021 58.2712 34.7008C58.765 34.6981 59.2602 34.6981 59.754 34.694C61.0001 34.6873 62.2474 34.6792 63.4934 34.6711C63.8729 34.6967 64.2524 34.694 64.6332 34.6711C65.0584 34.6711 65.4822 34.6805 65.9074 34.6711C66.2344 34.6643 66.5628 34.7102 66.8884 34.6414C67.2746 34.6387 67.6621 34.6401 68.0483 34.6293C68.1815 34.6252 68.2542 34.659 68.2407 34.806C68.2353 34.8707 68.2407 34.9355 68.2407 35.0002C68.2555 37.6063 68.2636 40.2124 68.2932 42.8199C68.3295 46.0397 68.3403 49.2609 68.3605 52.4808C68.3699 53.8702 68.3766 55.2595 68.3874 56.6489C68.3874 56.7312 68.3564 56.8229 68.4304 56.8931C68.6551 56.9754 68.8893 56.9551 69.1221 56.9484C69.2876 56.9565 69.4531 56.9646 69.6199 56.9727C69.7706 57.0347 69.9281 57.0199 70.0855 57.0104C70.1703 57.0158 70.2551 57.0199 70.3412 57.0253C70.5551 57.0941 70.7745 57.09 70.9951 57.0779C71.1162 57.0846 71.2387 57.0914 71.3598 57.0981C71.5132 57.1656 71.6747 57.1521 71.8361 57.1413C71.9384 57.1467 72.0407 57.1521 72.1429 57.1588C72.3152 57.229 72.4941 57.2182 72.6744 57.2074C72.7377 57.2114 72.8009 57.2141 72.8642 57.2182C72.9597 57.264 73.0606 57.2694 73.1642 57.2559C73.2571 57.2762 73.3499 57.2924 73.4455 57.2694C73.5289 57.2748 73.6137 57.2816 73.6984 57.287C73.8693 57.3544 74.0469 57.3504 74.2259 57.3382C74.3255 57.345 74.4264 57.3517 74.526 57.3584C74.6565 57.4259 74.7964 57.4138 74.9364 57.403C75.0359 57.4097 75.1369 57.4165 75.2378 57.4232C75.3683 57.4906 75.5069 57.4799 75.6469 57.4677C75.7464 57.4745 75.846 57.4825 75.9456 57.4893C76.0559 57.554 76.1757 57.5419 76.2941 57.5311C76.3748 57.5365 76.4556 57.5419 76.5376 57.5473C76.6655 57.612 76.8027 57.6066 76.94 57.5945C77.0207 57.5999 77.1014 57.6066 77.1822 57.612C77.31 57.6781 77.4473 57.6714 77.5845 57.6606C77.6639 57.666 77.7446 57.6727 77.8254 57.6781C77.855 57.6741 77.8846 57.6714 77.9142 57.6714C77.8846 57.6714 77.855 57.6754 77.8254 57.6781C77.933 57.7415 78.0501 57.7375 78.1685 57.7227C78.2667 57.7308 78.3663 57.7388 78.4645 57.7456C78.5735 57.8103 78.6906 57.7995 78.809 57.7901C78.8696 57.7941 78.9301 57.7995 78.9907 57.8036C79.097 57.8643 79.2127 57.8656 79.3297 57.8508C79.4091 57.8575 79.4899 57.8629 79.5693 57.8697C79.6756 57.9331 79.7913 57.9304 79.9083 57.9169C80.2178 57.9344 80.2192 57.9344 80.2165 57.6903C80.199 55.2973 80.1802 52.9057 80.1654 50.5127C80.1519 48.3895 80.1425 46.2663 80.1277 44.1432C80.1156 42.4948 80.0927 40.8464 80.0806 39.1967C80.0698 37.7196 80.0712 36.2439 80.0577 34.7669C80.0564 34.5969 80.1021 34.547 80.2703 34.5497C80.7641 34.5564 81.2593 34.5456 81.7545 34.5416C81.807 34.547 81.8608 34.5578 81.9133 34.5578C82.9642 34.5537 84.0138 34.5578 85.0647 34.5375C85.4589 34.5295 85.8559 34.5686 86.2488 34.5052C87.4854 34.4971 88.7206 34.4903 89.9572 34.4822C90.2008 34.4809 90.2008 34.4768 90.2062 34.2327C90.2062 34.1679 90.2062 34.1032 90.2062 34.0385L90.2035 34.0398ZM63.772 34.6387C63.9604 34.6266 64.1488 34.632 64.3371 34.6387C64.1488 34.6306 63.9604 34.6252 63.772 34.6387ZM72.9368 57.2101C72.9839 57.2074 73.031 57.2101 73.0768 57.2182C73.0297 57.2114 72.9839 57.2087 72.9368 57.2101Z" fill="url(#paint9_linear_0_364)"/>
<path d="M36.151 56.1647C36.1362 53.9875 36.116 51.809 36.0998 49.6319C36.0837 47.3468 36.0702 45.0604 36.0554 42.774C36.042 40.6387 36.0326 38.5047 36.0178 36.3694C36.0083 35.0973 35.9908 33.8253 35.9787 32.5533C35.9734 31.9706 35.9666 31.3892 35.972 30.8065C35.976 30.2345 35.9532 29.6639 35.9559 29.0933C35.9612 27.94 35.9478 26.7853 35.9397 25.632C35.9384 25.3757 35.9343 25.3717 35.6719 25.3676C35.2413 25.3609 34.8108 25.3609 34.3815 25.3569C34.325 25.3123 34.2591 25.3285 34.1958 25.3285C33.5849 25.3218 32.9754 25.3096 32.3645 25.3123C31.7442 25.315 31.1238 25.2773 30.5022 25.3164C29.9007 25.3083 29.2992 25.3015 28.6977 25.2935C28.0936 25.2354 27.4867 25.2368 26.8798 25.2584C26.3026 25.2476 25.724 25.2381 25.1467 25.2274C24.813 25.1909 24.4779 25.141 24.1429 25.2247C24.0877 25.3137 24.1106 25.4135 24.1106 25.5079C24.116 26.347 24.1254 27.1873 24.1321 28.0263C24.155 31.1477 24.1779 34.2691 24.1994 37.3905C24.2008 37.663 24.1994 37.663 23.9155 37.6657C22.9494 37.6724 21.9819 37.6778 21.0157 37.6832C20.9417 37.6765 20.8677 37.6643 20.7924 37.6657C19.7832 37.6697 18.774 37.6657 17.7661 37.6846C17.3611 37.6913 16.9534 37.6535 16.5497 37.7183C15.6683 37.7237 14.787 37.7318 13.9043 37.7345C13.6715 37.7345 13.6715 37.7304 13.6688 37.4822C13.6567 36.4908 13.6419 35.4993 13.6351 34.5079C13.6123 31.3932 13.5921 28.2786 13.5706 25.164C13.5679 24.8119 13.5961 24.8537 13.2624 24.8443C13.2409 24.8443 13.2194 24.8402 13.1978 24.8389C12.8789 24.7687 12.556 24.7782 12.2317 24.7903C12.1012 24.7849 11.9706 24.7809 11.8401 24.7755C11.5427 24.7053 11.2413 24.7148 10.9399 24.7256C10.8107 24.7202 10.6802 24.7148 10.5497 24.7094C10.4178 24.6581 10.2846 24.6527 10.1474 24.6837C9.91458 24.673 9.68045 24.6608 9.44631 24.65C9.15163 24.5799 8.85156 24.5826 8.55149 24.5961C8.36042 24.5839 8.16934 24.5718 7.97827 24.5596C7.78585 24.4976 7.58939 24.5192 7.39294 24.5259C7.36872 24.5246 7.34584 24.5219 7.32162 24.5205C7.1911 24.4747 7.05654 24.4612 6.91929 24.4909C6.72821 24.4801 6.53848 24.4679 6.34741 24.4571C6.09578 24.3937 5.84012 24.387 5.58177 24.4018C5.4943 24.3964 5.40684 24.3924 5.31938 24.387C5.13099 24.3168 4.93588 24.329 4.74077 24.3384C4.63312 24.333 4.52413 24.3263 4.41648 24.3209C4.2281 24.2494 4.03299 24.2615 3.83788 24.2737C3.7706 24.2696 3.70332 24.2656 3.63604 24.2615C3.45035 24.186 3.25658 24.1995 3.06281 24.2089C2.9767 24.2035 2.88923 24.1981 2.80177 24.1914C2.63626 24.1212 2.46268 24.1307 2.28775 24.1428C2.242 24.1388 2.19625 24.1361 2.14916 24.132C2.02132 24.0875 1.89349 24.043 1.76028 24.1132C1.75355 24.1766 1.73875 24.24 1.7401 24.3034C1.75221 25.5214 1.76835 26.7381 1.77777 27.9562C1.80468 31.6199 1.82621 35.2835 1.85178 38.9471C1.86927 41.3711 1.88946 43.7965 1.90695 46.2205C1.92982 49.4322 1.95135 52.6427 1.97154 55.8544C1.97961 57.1264 1.98365 58.3971 1.99307 59.6691C1.99307 59.7919 1.97557 59.92 2.02536 60.0468C2.37522 59.9726 2.70758 59.9011 3.03994 59.8337C3.53781 59.7325 4.03568 59.6327 4.53489 59.5383C4.8538 59.4776 5.17405 59.4263 5.49296 59.3697C5.90605 59.2955 6.31915 59.2186 6.7336 59.1431C6.81029 59.1592 6.8843 59.1538 6.9462 59.0985C7.00406 59.0918 7.06192 59.085 7.12113 59.0783C7.19917 59.0945 7.27183 59.0891 7.33508 59.0338C7.52346 59.0297 7.70781 58.9852 7.89081 58.9475C8.00787 58.9704 8.11821 58.9461 8.2272 58.9016C8.24739 58.8949 8.26757 58.8881 8.28776 58.8814C8.38464 58.9043 8.47749 58.9016 8.56226 58.8396C8.77082 58.8112 8.97805 58.7829 9.18661 58.7532C9.266 58.7694 9.34136 58.7681 9.40595 58.7114C9.46111 58.7047 9.51763 58.6979 9.5728 58.6898C9.67237 58.7087 9.76926 58.7087 9.85672 58.6453C9.91323 58.6386 9.96975 58.6318 10.0263 58.6237C10.1258 58.6426 10.2227 58.6426 10.3088 58.5806C10.3654 58.5738 10.4219 58.5671 10.4784 58.5603C10.578 58.5779 10.6762 58.5806 10.7637 58.5172C10.8215 58.5091 10.8794 58.501 10.9372 58.4915C11.0314 58.5104 11.1229 58.5104 11.2064 58.4524C11.2884 58.4457 11.3705 58.4376 11.4526 58.4308C11.5495 58.4443 11.645 58.4484 11.7311 58.3863C11.789 58.3782 11.8482 58.3701 11.9074 58.362C12.0016 58.3809 12.0944 58.3836 12.1779 58.3256C12.2573 58.3175 12.3366 58.3094 12.416 58.3013C12.517 58.3189 12.6152 58.3243 12.7053 58.2609C12.7807 58.2528 12.8574 58.2447 12.9327 58.2366C13.0337 58.2541 13.1332 58.2595 13.2234 58.1975C13.3014 58.188 13.3781 58.1772 13.4562 58.1678C13.5625 58.1867 13.6661 58.1921 13.7603 58.126C13.8599 58.0262 13.8074 57.9007 13.8074 57.7887C13.8007 56.5059 13.7872 55.2245 13.7778 53.9417C13.7643 52.0882 13.7536 50.2348 13.7414 48.3814C13.7414 48.318 13.728 48.2506 13.7832 48.1993C14.351 48.2263 14.9188 48.2128 15.488 48.1966C16.2604 48.1953 17.0314 48.202 17.8038 48.1872C18.1671 48.1805 18.5318 48.2209 18.8924 48.1589C19.0095 48.1575 19.1279 48.1535 19.2463 48.1535C20.2864 48.1467 21.3266 48.1413 22.3654 48.1346C22.9884 48.1656 23.6127 48.1494 24.2357 48.1305C24.2936 48.2074 24.2694 48.2965 24.2707 48.3801C24.2923 51.0469 24.3097 53.715 24.3326 56.3818C24.3353 56.6287 24.3111 56.8755 24.3595 57.121C24.5425 57.1683 24.7215 57.144 24.8978 57.0887C25.0027 57.0819 25.1077 57.0765 25.2126 57.0698C25.3512 57.0914 25.4871 57.0792 25.623 57.0482C25.7051 57.0684 25.7859 57.0657 25.8626 57.0239C25.946 57.0199 26.0294 57.0158 26.1128 57.0131C26.355 57.0226 26.5973 57.0307 26.8327 56.9605C26.9377 56.9551 27.044 56.9484 27.1503 56.943C27.2889 56.9659 27.4261 56.9511 27.562 56.9268C27.6657 56.943 27.7693 56.9457 27.8675 56.8971C27.9738 56.8917 28.0788 56.8863 28.1851 56.8809C28.3237 56.9039 28.4609 56.8904 28.5968 56.8674C28.7219 56.8823 28.8457 56.885 28.9655 56.8337C29.0893 56.8283 29.2131 56.8229 29.3382 56.8175C29.5643 56.8297 29.789 56.8459 30.0097 56.7757C30.1738 56.769 30.3394 56.7622 30.5035 56.7555C30.7699 56.7622 31.0364 56.7825 31.2988 56.7083C31.4845 56.7015 31.6701 56.6948 31.8558 56.688C32.1236 56.7002 32.3914 56.715 32.6551 56.6449C32.8637 56.6368 33.0736 56.6287 33.2822 56.6192C33.4638 56.6422 33.6455 56.6314 33.8258 56.6071C33.9536 56.6233 34.0801 56.6341 34.2026 56.5788C34.4138 56.572 34.6237 56.5639 34.835 56.5572C35.1229 56.5774 35.4095 56.568 35.6948 56.5316L35.6867 56.5127C35.8267 56.4951 35.968 56.4857 36.1079 56.5059C36.19 56.4007 36.1483 56.2766 36.1483 56.1633L36.151 56.1647ZM25.3122 57.0442C25.3781 57.0307 25.4454 57.028 25.5141 57.028C25.4468 57.028 25.3781 57.0293 25.3122 57.0442ZM25.6163 57.0334C25.658 57.0253 25.6984 57.0185 25.7401 57.0172C25.6984 57.0199 25.658 57.0253 25.6163 57.0334ZM27.2512 56.9174C27.3171 56.9039 27.3858 56.9012 27.4531 56.9025C27.3844 56.9012 27.3171 56.9025 27.2512 56.9174ZM27.5553 56.9079C27.5311 56.9066 27.5055 56.9052 27.4813 56.9039C27.5055 56.9039 27.5311 56.9052 27.5553 56.9079C27.6078 56.8985 27.6603 56.8917 27.7114 56.889C27.6589 56.8917 27.6064 56.8998 27.5553 56.9079ZM28.5901 56.8486C28.6533 56.8364 28.7152 56.8283 28.7785 56.8256C28.7152 56.8283 28.6533 56.8378 28.5901 56.8486ZM34.0128 56.568C34.0128 56.568 34.0061 56.568 34.0034 56.568C34.0061 56.568 34.0101 56.568 34.0128 56.568ZM33.5526 56.5828C33.5082 56.5842 33.4625 56.5882 33.4181 56.595C33.4625 56.5882 33.5069 56.5842 33.5526 56.5828ZM33.8204 56.5882C33.8352 56.5855 33.8487 56.5842 33.8635 56.5828C33.8487 56.5842 33.8352 56.5869 33.8204 56.5882Z" fill="url(#paint10_linear_0_364)"/>
<path d="M73.5868 16.1708C73.2719 15.3938 72.8991 14.6424 72.4982 13.91C70.5619 10.3691 67.9003 7.47972 64.613 5.15959C63.5849 4.43387 62.5085 3.78505 61.3889 3.20906C60.9906 3.00403 60.5896 2.80304 60.1712 2.63847C58.4313 1.81698 56.6107 1.22616 54.743 0.78102C53.929 0.586777 53.1001 0.459979 52.2752 0.321041C52.1851 0.268434 52.0855 0.263038 51.9846 0.273829C51.9294 0.268434 51.8742 0.263038 51.8191 0.257642C51.6872 0.19829 51.5486 0.194243 51.4087 0.203686C51.3521 0.199639 51.2956 0.194243 51.2391 0.190197C51.1261 0.13624 51.0077 0.133542 50.8866 0.147031C50.7883 0.140287 50.6888 0.133542 50.5905 0.128147C50.3739 0.0647478 50.1519 0.0633989 49.9285 0.0755391C49.8276 0.0714924 49.7253 0.0687945 49.6244 0.0647478C49.6325 0.0431652 49.6419 0.0215826 49.65 0H46.9373C46.9251 0.0161869 46.9171 0.0337228 46.9117 0.0539565C46.7462 0.0323739 46.582 0.0499097 46.4179 0.0728413C46.2846 0.0485608 46.1528 0.0687945 46.0196 0.076888C45.8379 0.0714923 45.6562 0.0701434 45.48 0.125449C45.3992 0.130844 45.3185 0.13624 45.2364 0.141636C45.2176 0.151078 45.2001 0.159172 45.1813 0.165916C45.2001 0.159172 45.2189 0.151078 45.2364 0.141636C45.0817 0.137589 44.9256 0.137589 44.7762 0.192894C44.39 0.241455 44.0039 0.290016 43.6177 0.337228C43.5275 0.333181 43.4374 0.331832 43.3566 0.383091C43.2947 0.391185 43.2315 0.399278 43.1682 0.407371C43.0983 0.400627 43.0296 0.399278 42.9691 0.447839C42.3959 0.55845 41.8186 0.647478 41.2494 0.787765C40.5295 0.964472 39.8137 1.15197 39.1072 1.37724C38.0133 1.72526 36.9449 2.14207 35.894 2.60475C35.1781 2.94468 34.4663 3.29135 33.7773 3.68253C31.8908 4.75222 30.1375 6.00536 28.5551 7.49186C28.3977 7.63889 28.2025 7.73466 28.0572 7.89653C27.8002 8.18385 27.5163 8.44284 27.2768 8.75039C27.0225 9.07818 26.7184 9.36685 26.4479 9.68384C25.0714 11.2944 23.9464 13.0696 22.9655 14.9419C22.8471 15.1672 22.7919 15.4262 22.6708 15.6501C22.5282 15.9145 22.4528 16.2031 22.3317 16.4756C22.2537 16.6523 22.2739 16.6753 22.4703 16.686C23.4687 16.7414 24.4685 16.7899 25.467 16.8479C25.6311 16.8574 25.7388 16.8223 25.767 16.6442C25.7751 16.5916 25.802 16.5417 25.8168 16.4905C26.1021 15.5287 26.4856 14.6033 26.8906 13.6915C27.2472 12.8889 27.6751 12.1159 28.1635 11.3794C28.6749 10.6078 29.201 9.84841 29.7486 9.10246C30.0231 8.72881 30.3542 8.41047 30.6556 8.06515C31.3674 7.2504 32.1599 6.51525 32.9579 5.79088C33.3589 5.42667 33.8258 5.13531 34.2631 4.81022C34.8592 4.36643 35.4984 3.98738 36.112 3.57192C36.478 3.37498 36.8426 3.17399 37.21 2.9811C38.6995 2.20142 40.2631 1.61735 41.8819 1.16951C42.591 0.973915 43.3176 0.863304 44.0335 0.700085C44.1277 0.712226 44.2178 0.70683 44.2985 0.651525C44.7049 0.602964 45.1099 0.554403 45.5163 0.505842C45.6724 0.516633 45.8285 0.52068 45.9765 0.454583C45.8231 0.454583 45.6697 0.453234 45.5177 0.451886C45.671 0.451886 45.8244 0.453234 45.9765 0.454583C46.0599 0.449188 46.142 0.443792 46.2254 0.438396C46.2497 0.404674 46.282 0.391185 46.3183 0.388487C46.282 0.392533 46.2497 0.404674 46.2254 0.438396C46.2685 0.438396 46.3129 0.438396 46.356 0.438396C46.578 0.44649 46.8013 0.461328 47.018 0.393882C47.5468 0.393882 48.077 0.393882 48.6058 0.393882C48.8426 0.464026 49.0862 0.449188 49.3284 0.439745L49.6486 0.454583C49.7953 0.512587 49.9487 0.517982 50.1034 0.503144C50.3793 0.531471 50.6551 0.561148 50.931 0.589475C51.0131 0.646129 51.1046 0.650176 51.1987 0.635338C51.2418 0.639384 51.2849 0.64478 51.3293 0.648827C51.41 0.697388 51.4961 0.713575 51.5876 0.696039C52.0909 0.797207 52.5982 0.88084 53.096 1.00224C54.6246 1.37454 56.1304 1.81833 57.5244 2.57372C58.0976 2.69513 58.5551 3.06473 59.0705 3.31158C59.4351 3.48694 59.7742 3.71895 60.1241 3.92533C60.1402 3.94017 60.1537 3.95636 60.1712 3.9685C61.5221 4.81562 62.7561 5.81381 63.9079 6.91318C64.395 7.37855 64.8323 7.89114 65.2871 8.38889C66.0501 9.22656 66.7067 10.1438 67.3149 11.0948C68.3672 12.7418 69.2055 14.4941 69.8056 16.3583C69.9052 16.6672 69.9092 16.6577 70.2335 16.6523C71.1055 16.6388 71.9707 16.5201 72.8413 16.4918C73.1131 16.4824 73.3836 16.4419 73.6769 16.4136C73.6379 16.3097 73.6137 16.2396 73.5854 16.1708H73.5868Z" fill="url(#paint11_linear_0_364)"/>
<path d="M46.2079 45.3127C46.212 45.2047 46.2214 45.0982 46.2214 44.9903C46.2214 44.1931 46.2026 43.3959 46.1958 42.5973C46.173 40.0964 46.1689 37.5942 46.1555 35.0933C46.1555 34.8896 46.1555 34.6873 46.1084 34.4836C46.0774 34.346 46.0761 34.2017 46.1259 34.0452C46.1945 33.8334 46.1783 33.6095 45.9482 33.4476C45.6643 33.248 45.4531 32.9715 45.2499 32.6909C45.1517 32.556 45.0561 32.4184 44.9364 32.2471C44.9337 32.5412 44.9875 32.761 45.1099 32.9863C45.262 33.2615 45.4584 33.5016 45.6307 33.7592C45.6038 33.7646 45.5769 33.7714 45.5499 33.7768C45.4813 33.7053 45.3939 33.7161 45.3077 33.7242C44.6349 33.569 44.02 33.2966 43.541 32.7826C43.3957 32.6261 43.2409 32.5816 43.0552 32.6464C42.8601 32.7138 42.6583 32.7327 42.4578 32.761C42.2156 32.761 41.9734 32.761 41.7312 32.7624C41.8523 32.7961 41.9734 32.8136 42.0945 32.815C41.9734 32.815 41.8523 32.7961 41.7312 32.7624C41.4741 32.7705 41.24 32.6531 40.9911 32.618C40.9642 32.5695 40.9224 32.5546 40.87 32.5614C40.8471 32.5533 40.8242 32.5439 40.8013 32.5358C40.652 32.4144 40.4596 32.3793 40.2994 32.27C39.9038 32.0016 39.5473 31.6967 39.2754 31.3002C39.2203 31.2192 39.153 31.1788 39.0588 31.199C38.9377 31.2246 38.9673 31.3298 38.9673 31.4094C38.9673 31.7655 38.9727 32.1203 38.9754 32.4764C38.9969 35.4926 38.9996 38.5101 39.0359 41.5263C39.0749 44.8122 39.0844 48.0982 39.1046 51.3841C39.114 52.9462 39.1194 54.5095 39.1274 56.0716C39.1288 56.3832 39.1315 56.3845 39.449 56.3832C40.5349 56.3791 41.6208 56.3751 42.7067 56.371C43.0606 56.3697 43.4158 56.3643 43.7697 56.3603C44.024 56.3657 44.2797 56.3737 44.534 56.3751C45.1073 56.3778 45.6818 56.3751 46.255 56.3751C46.2295 56.3427 46.247 56.3225 46.2752 56.3049C46.2766 56.2078 46.282 56.1107 46.2806 56.0136C46.2645 53.9659 46.247 51.9183 46.2322 49.8706C46.2214 48.3504 46.2133 46.8315 46.2039 45.3113L46.2079 45.3127Z" fill="url(#paint12_linear_0_364)"/>
<path d="M56.9942 48.3046C56.9942 48.1022 57.0225 47.8958 56.9565 47.6962C56.9606 47.5991 56.9687 47.5033 56.9687 47.4075C56.9619 45.7632 56.9552 44.1189 56.9458 42.4759C56.9417 41.7353 56.9296 40.9934 56.9216 40.2529C56.9243 40.2205 56.931 40.1881 56.931 40.1571C56.9148 37.9382 56.8987 35.7178 56.8812 33.4989C56.8812 33.4301 56.9162 33.3492 56.8449 33.2939C56.7776 33.2912 56.752 33.3451 56.7143 33.3788C56.4452 33.6203 56.1842 33.8739 55.8558 34.0344C55.035 34.435 54.1833 34.547 53.2938 34.3042C52.9857 34.2192 52.9857 34.2219 52.9036 34.5402C52.6062 35.6774 51.9227 36.4827 50.8462 36.9534C50.569 37.0749 50.2757 37.1369 49.9796 37.1909C49.8209 37.2192 49.7576 37.2677 49.7603 37.4539C49.7791 39.6621 49.7805 41.8716 49.7939 44.0811C49.798 44.792 49.8209 45.5015 49.8357 46.2124C49.8289 46.2758 49.8168 46.3405 49.8168 46.4039C49.8276 48.3126 49.837 50.2214 49.8545 52.1287C49.8599 52.6346 49.8289 53.1418 49.8828 53.6476C49.8437 53.7515 49.8585 53.8607 49.8585 53.9673C49.8639 54.6566 49.8693 55.3472 49.8774 56.0365C49.8801 56.3157 49.8828 56.3184 50.1667 56.3144C52.3613 56.2888 54.5547 56.2915 56.7493 56.3211C57.0252 56.3252 57.0265 56.3225 57.0252 56.0352C57.0158 53.4587 57.0077 50.8823 56.9942 48.3059V48.3046Z" fill="url(#paint13_linear_0_364)"/>
<path d="M92.9768 70.8031C92.9821 68.6461 92.9808 66.4879 92.9808 64.331C92.8853 64.2433 92.9324 64.1286 92.9297 64.0261C92.9229 63.7145 92.927 63.4043 92.927 63.0927C92.9041 63.0873 92.8799 63.0819 92.857 63.0765C92.8799 63.2518 92.7467 63.3854 92.7426 63.5284C92.7319 63.9425 92.5287 64.2878 92.3699 64.6412C92.1479 65.1309 91.8693 65.5922 91.4361 65.9375C91.2006 66.125 91.0458 66.3948 90.8023 66.5742C90.4215 66.8561 90.0138 67.0828 89.5778 67.277C88.6439 67.6938 87.6738 67.7882 86.6794 67.6628C86.0227 67.5805 85.3715 67.4402 84.7188 67.3256C83.4742 67.1057 82.2214 66.9371 80.9741 66.7253C80.604 66.6619 80.2299 66.6133 79.8586 66.5607C78.7094 66.3988 77.5603 66.2302 76.4098 66.0778C75.2701 65.9281 74.1277 65.7865 72.9853 65.6583C72.4632 65.6003 71.9451 65.4883 71.415 65.4978C71.3383 65.4897 71.2602 65.4816 71.1835 65.4735C71.1378 65.4344 71.0866 65.433 71.0315 65.4479C70.3546 65.3669 69.6778 65.2901 68.9983 65.2442C68.8193 65.1902 68.6363 65.1713 68.4506 65.1889C68.3793 65.1848 68.3066 65.1794 68.2353 65.1754C68.0752 65.1133 67.9083 65.1079 67.7401 65.1241C67.7993 65.1592 67.8599 65.174 67.9218 65.1794C67.9635 65.1835 68.0052 65.1821 68.0469 65.1794C68.0052 65.1808 67.9635 65.1821 67.9218 65.1794C67.8599 65.174 67.7993 65.1592 67.7401 65.1241C66.6623 65.0311 65.5845 64.938 64.5067 64.8449C64.3277 64.795 64.1447 64.7963 63.9617 64.8031C63.8245 64.7937 63.6885 64.7856 63.5513 64.7761C63.3898 64.7222 63.2243 64.7302 63.0588 64.737C62.2568 64.6857 61.4535 64.6331 60.6516 64.5819C60.5722 64.5805 60.4928 64.5832 60.412 64.5846C60.4914 64.5846 60.5708 64.5805 60.6516 64.5819C60.443 64.5293 60.2304 64.5347 60.0178 64.5427C59.3396 64.5104 58.6614 64.447 57.9819 64.4483C57.7531 64.3822 57.519 64.4011 57.2862 64.4106C56.5219 64.3795 55.7576 64.3485 54.9933 64.3161C54.665 64.2595 54.3353 64.273 54.0043 64.2811C53.6033 64.2716 53.2023 64.2622 52.8014 64.2527C52.1272 64.188 51.4517 64.2069 50.7762 64.2109C49.9272 64.2028 49.0767 64.1961 48.2263 64.188C47.898 64.1246 47.5656 64.1637 47.236 64.161C46.9924 64.1597 46.7448 64.1205 46.504 64.1893C45.6509 64.1961 44.7978 64.2042 43.9433 64.2109C43.4656 64.2109 42.9866 64.2082 42.5089 64.215C42.3098 64.2177 42.1052 64.1866 41.9088 64.2527C41.345 64.2662 40.7812 64.2784 40.216 64.2919C39.9011 64.2757 39.5876 64.2757 39.2754 64.3283C39.1974 64.331 39.118 64.3337 39.04 64.3377C38.7628 64.3323 38.4842 64.3094 38.2084 64.3728C37.9487 64.3822 37.689 64.3917 37.4293 64.4011C37.3956 64.4119 37.3607 64.42 37.327 64.4267C37.3607 64.42 37.3956 64.4106 37.4293 64.4011C37.1521 64.4038 36.8736 64.3728 36.6004 64.4456C36.3824 64.4551 36.1644 64.4632 35.9464 64.4726C35.6518 64.4632 35.3584 64.4578 35.0678 64.5239C34.9117 64.5306 34.7556 64.5374 34.5995 64.5427C34.3667 64.5333 34.1339 64.5293 33.9052 64.5913C33.8123 64.5954 33.7208 64.5994 33.628 64.6035C33.3737 64.5927 33.1194 64.5927 32.8691 64.6574C32.7372 64.6642 32.6067 64.6695 32.4748 64.6763C32.281 64.6642 32.0873 64.6628 31.8989 64.7235C31.8101 64.7276 31.7213 64.7316 31.6325 64.7356C31.4172 64.7262 31.2019 64.7235 30.9933 64.7896C30.9274 64.7936 30.8601 64.7963 30.7942 64.8004C30.5775 64.7896 30.3609 64.7856 30.151 64.8557C30.0245 64.8624 29.8967 64.8692 29.7702 64.8759C29.5939 64.8624 29.4203 64.8665 29.2508 64.9258C29.1862 64.9285 29.1229 64.9312 29.0583 64.9339C28.8605 64.9258 28.6641 64.9218 28.4744 64.9906C28.4313 64.9919 28.3882 64.9946 28.3465 64.996C28.1487 64.9852 27.9509 64.9838 27.7598 65.0526C27.7195 65.0553 27.6791 65.0567 27.6387 65.0594C27.4194 65.0499 27.2001 65.0513 26.9875 65.1214C26.9269 65.1241 26.8664 65.1268 26.8058 65.1295C26.6457 65.1187 26.4883 65.1187 26.3376 65.1835C26.2784 65.1862 26.2191 65.1889 26.1599 65.1916C25.9796 65.1821 25.8007 65.1821 25.6284 65.2509C25.3755 65.2739 25.1225 65.2981 24.8695 65.3211C24.7067 65.3076 24.5466 65.3089 24.3932 65.3777C24.1227 65.4034 23.8522 65.4276 23.5831 65.4533C23.4405 65.4425 23.2992 65.4425 23.166 65.5086C22.9184 65.5329 22.6695 65.5571 22.4219 65.5814C22.2779 65.5706 22.1353 65.572 22.0021 65.6394C21.9698 65.6408 21.9375 65.6421 21.9052 65.6435C21.7437 65.6327 21.5836 65.63 21.4315 65.7042H21.4369C21.3293 65.7055 21.2216 65.6988 21.1153 65.7123C20.1451 65.8337 19.1736 65.9564 18.2048 66.0846C17.0651 66.237 15.924 66.3867 14.787 66.554C13.6849 66.7159 12.5869 66.9047 11.4835 67.0679C11.061 67.13 10.6412 67.2095 10.2173 67.2689C9.82039 67.3242 9.42209 67.4321 9.0238 67.4955C8.17876 67.6304 7.34046 67.799 6.49812 67.9434C5.40819 68.1295 4.34382 68.0526 3.32386 67.5913C1.76432 66.8872 0.720136 65.7244 0.223611 64.0801C0.136148 63.7914 0.0836695 63.4933 0.00158826 63.1439C-0.0078309 63.6336 0.0271545 64.0639 0.0406105 64.4942C0.0742503 65.5504 0.0607944 66.6066 0.098471 67.6628C0.132111 68.6327 0.125383 69.6039 0.138839 70.5737C0.14153 70.8058 0.146912 70.8098 0.370281 70.7612C1.04173 70.6156 1.71318 70.4672 2.38464 70.3188C4.32095 69.8912 6.26802 69.5108 8.21509 69.1345C9.52301 68.8822 10.839 68.6826 12.151 68.4532C13.5907 68.2024 15.0346 67.9757 16.4811 67.7734C18.1308 67.5427 19.7845 67.3283 21.4356 67.107C21.5419 67.0962 21.6535 67.1205 21.7504 67.0531C21.6616 67.0531 21.5715 67.0558 21.4813 67.0571C21.5715 67.0571 21.6616 67.0544 21.7504 67.0531C22.2106 67.0005 22.6722 66.9492 23.1337 66.8966C23.24 66.9195 23.3423 66.9141 23.4391 66.8588C23.5306 66.8494 23.6221 66.8413 23.7136 66.8319C23.8213 66.8494 23.9263 66.8548 24.0245 66.7941C24.1146 66.786 24.2048 66.7779 24.2949 66.7698C24.3071 66.7617 24.3205 66.755 24.3326 66.7482C24.3205 66.7536 24.3071 66.7604 24.2949 66.7698C24.4039 66.7887 24.5116 66.7927 24.6125 66.7307C24.7 66.7226 24.7888 66.7158 24.8762 66.7078C25.0068 66.7293 25.1359 66.7226 25.2584 66.6646C25.3243 66.6592 25.3916 66.6538 25.4575 66.6471C25.6096 66.6632 25.7616 66.6632 25.9056 66.5985C25.9917 66.5918 26.0779 66.585 26.164 66.5769C26.2985 66.5985 26.4304 66.5918 26.5569 66.5338C26.6403 66.527 26.7251 66.5203 26.8085 66.5149C26.9646 66.5324 27.118 66.5297 27.2674 66.469C27.3508 66.4623 27.4329 66.4569 27.5163 66.4501C27.6737 66.469 27.8298 66.4636 27.9805 66.4043C28.0626 66.3988 28.1433 66.3921 28.2254 66.3867C28.4057 66.4097 28.582 66.3908 28.7556 66.3382C28.8148 66.3341 28.8753 66.3301 28.9359 66.326C29.1189 66.3422 29.2992 66.3382 29.4755 66.2775C29.5737 66.2707 29.6733 66.2653 29.7729 66.2586C29.9572 66.2788 30.1389 66.2694 30.3165 66.2114C30.3932 66.2073 30.4712 66.2033 30.5479 66.1992C30.735 66.2127 30.9207 66.2181 31.101 66.1507C31.1965 66.1453 31.2907 66.1412 31.3862 66.1358C31.5961 66.1507 31.8047 66.152 32.0079 66.0859C32.1007 66.0819 32.1949 66.0765 32.2891 66.0724C32.5219 66.0859 32.7533 66.09 32.9794 66.0212C33.0709 66.0171 33.1638 66.0131 33.2553 66.009C33.5109 66.0239 33.7666 66.0239 34.0169 65.9578C34.1285 65.9537 34.2389 65.9483 34.3506 65.9443C34.6291 65.9578 34.9063 65.9578 35.1808 65.893C35.2911 65.889 35.4015 65.8849 35.5118 65.8809C35.7137 65.893 35.9155 65.9106 36.1119 65.8418C36.342 65.8337 36.5721 65.8256 36.8022 65.8175C37.0471 65.8256 37.292 65.8512 37.5316 65.7757C37.7832 65.7689 38.0348 65.7608 38.2878 65.7541C38.5973 65.7622 38.9067 65.7851 39.2109 65.7109C39.5271 65.7042 39.8433 65.6961 40.1595 65.6893C40.8067 65.7001 41.4526 65.7028 42.0971 65.634C42.3972 65.63 42.6986 65.6259 42.9987 65.6219C43.1158 65.6273 43.2328 65.6367 43.3512 65.6354C44.8072 65.6327 46.2645 65.6286 47.7204 65.6259C48.3622 65.6246 49.0054 65.6232 49.6473 65.6232C49.6957 65.6246 49.7442 65.6259 49.7926 65.6273C50.0469 65.6731 50.3053 65.6489 50.5609 65.6556C51.1813 65.6718 51.8029 65.7136 52.4232 65.6853C52.4515 65.6866 52.4784 65.688 52.5067 65.6893C53.0597 65.7298 53.6127 65.7635 54.1685 65.7473C54.2384 65.75 54.3098 65.7514 54.3797 65.7541C54.8251 65.7959 55.2705 65.8283 55.7186 65.8121C55.8101 65.8148 55.9003 65.8161 55.9918 65.8188C56.3726 65.8782 56.7547 65.893 57.1395 65.8795L57.34 65.8863C57.6576 65.947 57.9792 65.9564 58.3021 65.9429C58.3479 65.9456 58.395 65.947 58.4407 65.9497C58.7152 66.0009 58.9924 66.0225 59.271 66.0036C59.3598 66.0077 59.4486 66.0117 59.5374 66.0144C59.7688 66.0724 60.003 66.0832 60.2398 66.067C60.2882 66.0697 60.3367 66.0724 60.3851 66.0751C60.6354 66.1223 60.8884 66.148 61.144 66.1304C61.2127 66.1345 61.2813 66.1372 61.3499 66.1412C61.58 66.1925 61.8128 66.2154 62.0483 66.1965C62.1156 66.2006 62.1828 66.2046 62.2501 66.2073C62.46 66.264 62.6726 66.2802 62.8879 66.2626C62.9539 66.2667 63.0198 66.2707 63.0857 66.2734C63.2741 66.3328 63.4679 66.3436 63.663 66.326C63.6912 66.3274 63.7182 66.3301 63.7464 66.3314C63.9523 66.38 64.1609 66.4056 64.3735 66.3881C64.4407 66.3921 64.508 66.3962 64.5753 66.4002C64.7408 66.4528 64.9117 66.4703 65.0839 66.4515C65.1324 66.4542 65.1808 66.4582 65.2293 66.4609C65.415 66.5108 65.602 66.5351 65.7944 66.5162C65.8603 66.5203 65.9263 66.5243 65.9936 66.5297C66.1604 66.5904 66.3313 66.5998 66.5062 66.5837C66.7484 66.6039 66.9853 66.6686 67.2315 66.6552C67.3957 66.7078 67.5625 66.728 67.7334 66.7105C68.1694 66.7563 68.6054 66.8022 69.0413 66.848C69.2041 66.902 69.371 66.9222 69.5432 66.906C69.9913 66.9506 70.434 67.045 70.8875 67.0531C70.9709 67.1138 71.0624 67.1138 71.158 67.0976C71.2051 67.1016 71.2521 67.1057 71.2979 67.1097C71.3813 67.1286 71.4634 67.1556 71.5468 67.1664C72.0689 67.2352 72.591 67.2999 73.1144 67.3647C75.2136 67.6291 77.3046 67.9488 79.393 68.286C81.7464 68.665 84.0891 69.098 86.4277 69.5567C88.5027 69.964 90.5668 70.4213 92.6296 70.8826C92.7292 70.9042 92.8476 70.8988 92.9175 71C93.0561 70.9744 92.9781 70.8678 92.9781 70.8058L92.9768 70.8031ZM47.2279 65.3116C47.2346 65.3332 47.2414 65.3561 47.2467 65.3791C47.2414 65.3561 47.2346 65.3346 47.2279 65.3116ZM47.2575 65.549C47.9518 65.5544 48.6462 65.5585 49.3418 65.5666C48.6475 65.5585 47.9532 65.5544 47.2575 65.549Z" fill="url(#paint14_linear_0_364)"/>
<path d="M50.2663 22.9571C50.3376 22.4027 50.4937 21.8537 50.5771 21.2939C50.8193 19.6847 50.9687 18.07 50.9592 16.4419C50.9565 15.8821 50.9175 15.325 50.8301 14.7706C50.783 14.4752 50.682 14.1919 50.6376 13.9005C50.5488 13.3151 50.3039 12.7823 50.1317 12.2252C50.129 12.2157 50.1196 12.2077 50.1142 12.1982C50.0133 12.0471 49.9514 11.8826 49.8922 11.7099C49.8114 11.4711 49.7374 11.2162 49.5262 11.0435C49.2503 10.3408 48.7713 9.76882 48.3259 9.1753C48.2573 9.08358 48.159 9.02018 48.0945 8.91631C47.8994 8.60471 47.8724 8.60606 47.6047 8.85831C47.5899 8.87315 47.5791 8.89203 47.5656 8.90822C47.5656 8.96487 47.567 9.02153 47.5697 9.07683C47.5683 9.02018 47.567 8.96352 47.5656 8.90822C47.0907 9.26972 46.652 9.6717 46.2335 10.0966C46.0182 10.3165 45.7922 10.5269 45.6347 10.7967C45.1368 11.339 44.7628 11.9716 44.4546 12.6285C44.1667 13.2409 43.9406 13.8844 43.8074 14.5588C43.5369 15.9145 43.3916 17.2836 43.3337 18.6622C43.2732 20.0813 43.3607 21.4963 43.5302 22.9059C43.576 23.2836 43.576 23.668 43.6998 24.039C43.7832 24.2885 43.7738 24.3114 44.02 24.2453C44.3053 24.1685 44.5892 24.0835 44.8745 24.0012C44.9148 23.9958 44.9552 23.9918 44.9956 23.9864C45.0521 24.0012 45.1032 23.9931 45.1449 23.9499C45.2243 23.9432 45.3037 23.9351 45.3844 23.9284C45.5392 23.9418 45.6899 23.9337 45.8379 23.8798C46.1191 23.8757 46.4004 23.873 46.6829 23.869C46.7462 23.873 46.8081 23.8771 46.8713 23.8811C47.018 23.9364 47.1687 23.9445 47.3234 23.9337C47.7164 24.0079 48.1093 24.0835 48.5022 24.1577C48.9489 24.3546 49.4279 24.4625 49.8572 24.6824C49.9312 24.5853 49.9648 24.503 49.9662 24.418C49.9783 23.9135 50.2017 23.4562 50.2663 22.9571Z" fill="url(#paint15_linear_0_364)"/>
<path d="M53.75 22.2314C53.4136 22.6186 53.1795 23.1055 52.621 23.2728C52.6412 23.0192 52.6641 22.7953 52.6749 22.57C52.7179 21.673 52.652 20.7813 52.4851 19.8992C52.3129 18.9886 52.0572 18.1064 51.4733 17.2715C51.4652 17.4536 51.4611 17.5696 51.4531 17.6842C51.4221 18.1685 51.4073 18.6541 51.3562 19.1357C51.2458 20.1676 51.1274 21.1968 50.9538 22.222C50.7991 23.1406 50.608 24.0484 50.4129 24.9576C50.3941 25.0426 50.3604 25.1302 50.2878 25.1788C50.1304 25.2827 50.1142 25.4391 50.0981 25.601C50.0859 25.7184 50.0617 25.8357 50.051 25.9531C50.0187 26.3065 49.9124 26.6518 49.9124 27.0093C49.9124 27.3357 50.0388 27.4193 50.3362 27.2925C50.6753 27.1469 50.9727 26.9324 51.2378 26.6774C52.4515 25.5066 53.271 24.0983 53.7379 22.481C53.7594 22.4041 53.8025 22.3285 53.7487 22.2301L53.75 22.2314Z" fill="url(#paint16_linear_0_364)"/>
<path d="M44.1034 26.4697C44.0698 26.1824 44.0362 25.8937 44.0012 25.6064C43.9783 25.4149 43.9554 25.2233 43.9339 25.0304C43.9204 24.9158 43.8572 24.8874 43.7563 24.9265C43.6594 24.9279 43.5625 24.9306 43.4656 24.9319C43.3364 24.8969 43.21 24.8362 43.2019 24.6905C43.1736 24.1415 43.0566 23.6046 42.996 23.0597C42.9085 22.2786 42.8736 21.4936 42.8063 20.7112C42.7982 19.396 42.8238 18.0822 42.9381 16.771C42.9408 16.744 42.9287 16.7292 42.8884 16.7238C42.809 16.7414 42.7726 16.8263 42.7255 16.8911C42.4376 17.2863 42.2129 17.7139 42.0353 18.1712C41.8549 18.6366 41.7486 19.1141 41.6679 19.6037C41.5522 20.3065 41.4472 21.0093 41.4526 21.7229C41.4553 22.025 41.4661 22.3258 41.4688 22.628C41.4688 22.7737 41.3934 22.8249 41.2683 22.7588C41.1929 22.7197 41.1256 22.6617 41.0624 22.6051C40.8525 22.4176 40.691 22.1869 40.5255 21.9603C40.4811 21.8996 40.4609 21.8038 40.3506 21.7971C40.356 22.1033 40.4327 22.3825 40.5268 22.6658C40.6372 22.9963 40.8027 23.3011 40.9238 23.6262C40.9924 23.811 41.0274 24.043 41.2454 24.1455C41.3275 24.2872 41.3302 24.4679 41.458 24.5866C41.4486 24.6837 41.5011 24.7404 41.5831 24.7768C41.5737 24.8969 41.6921 24.9468 41.7285 25.0426C41.7231 25.0803 41.7352 25.0965 41.7729 25.079C41.9976 25.3703 42.2129 25.6698 42.4497 25.9517C42.5896 26.119 42.735 26.2809 42.9207 26.4144C43.1238 26.5601 43.3405 26.6909 43.5262 26.8622C43.6432 26.9701 43.7926 27.0362 43.9447 26.9755C44.1075 26.9108 44.1075 26.7462 44.1061 26.5952C44.1061 26.552 44.1061 26.5088 44.1021 26.467L44.1034 26.4697Z" fill="url(#paint17_linear_0_364)"/>
<path d="M48.8184 28.1896C48.8184 28.1221 48.8184 28.0709 48.8184 28.0183C48.8386 27.1442 48.7915 26.2728 48.743 25.4014C48.7363 25.2935 48.7296 25.1855 48.7148 25.079C48.6919 24.9144 48.6044 24.8267 48.4268 24.8605C48.1631 24.7606 47.8859 24.7283 47.5993 24.6797C47.4768 25.3312 47.4445 25.972 47.4055 26.6127C47.4015 26.6666 47.4069 26.7193 47.4486 26.7611C47.3275 26.8339 47.384 26.9553 47.3813 27.0524C47.3719 27.3586 47.3773 27.6648 47.3773 27.9953C47.2091 27.9225 47.1956 27.7593 47.053 27.654C47.1768 28.2597 47.3732 28.7885 47.6679 29.2795C47.7567 29.4279 47.8563 29.5682 47.9801 29.6896C48.0904 29.7975 48.2021 29.8123 48.3205 29.7057C48.3676 29.6626 48.4174 29.6194 48.4578 29.5682C48.8278 29.0906 49.027 28.543 49.1333 27.9414C48.9974 27.994 48.996 28.1815 48.8184 28.1855V28.1896Z" fill="url(#paint18_linear_0_364)"/>
<path d="M46.7045 27.913C46.6506 27.8874 46.6358 27.9724 46.6049 28.0075C46.5861 28.029 46.5753 28.0574 46.5605 28.0844C46.5322 28.1424 46.4878 28.2179 46.4394 28.1208C46.4057 28.052 46.43 27.9535 46.43 27.8685C46.4259 27.1644 46.4488 26.4603 46.3546 25.7602C46.3856 25.4176 46.2941 25.0844 46.2833 24.7444C46.2779 24.6042 46.1945 24.565 46.0707 24.5731C45.8379 24.588 45.6051 24.6015 45.3723 24.6163C45.3118 24.6055 45.2512 24.592 45.2082 24.6554C45.1665 24.7741 45.0763 24.8996 45.0924 25.0102C45.1422 25.3569 45.048 25.6887 45.0319 26.0286C45.0023 26.6518 44.9552 27.2737 45.0077 27.8969C44.9996 27.9292 44.9915 27.9603 44.9834 27.9926C44.8301 27.9441 44.8718 27.7121 44.6915 27.6756C44.6619 27.9508 44.756 28.1828 44.8745 28.4081C44.8866 28.431 44.8987 28.454 44.9108 28.4755C44.8677 28.5888 44.9189 28.6671 45.0036 28.7332H45.0077C45.0265 28.7602 45.0453 28.7844 45.0642 28.8101C45.1503 29.1432 45.2849 29.4454 45.5647 29.6693C45.7747 29.8379 45.8258 29.8501 46.0128 29.6491C46.212 29.436 46.3479 29.1851 46.434 28.9045C46.5188 28.6266 46.621 28.3528 46.7166 28.0776C46.7462 28.0196 46.7717 27.9468 46.7058 27.9144L46.7045 27.913Z" fill="url(#paint19_linear_0_364)"/>
<path d="M46.2591 56.3751C46.2335 56.3427 46.251 56.3225 46.2793 56.3049C46.2941 56.3346 46.2887 56.3576 46.2591 56.3751Z" fill="url(#paint20_linear_0_364)"/>
<defs>
<linearGradient id="paint0_linear_0_364" x1="-10" y1="-9.26034e-07" x2="93" y2="71" gradientUnits="userSpaceOnUse">
<stop stop-color="#AF0FFB"/>
<stop offset="1" stop-color="#4CA9EC"/>
</linearGradient>
<linearGradient id="paint1_linear_0_364" x1="-10" y1="-9.26034e-07" x2="93" y2="71" gradientUnits="userSpaceOnUse">
<stop stop-color="#AF0FFB"/>
<stop offset="1" stop-color="#4CA9EC"/>
</linearGradient>
<linearGradient id="paint2_linear_0_364" x1="-10" y1="-9.26034e-07" x2="93" y2="71" gradientUnits="userSpaceOnUse">
<stop stop-color="#AF0FFB"/>
<stop offset="1" stop-color="#4CA9EC"/>
</linearGradient>
<linearGradient id="paint3_linear_0_364" x1="-10" y1="-9.26034e-07" x2="93" y2="71" gradientUnits="userSpaceOnUse">
<stop stop-color="#AF0FFB"/>
<stop offset="1" stop-color="#4CA9EC"/>
</linearGradient>
<linearGradient id="paint4_linear_0_364" x1="-10" y1="-9.26034e-07" x2="93" y2="71" gradientUnits="userSpaceOnUse">
<stop stop-color="#AF0FFB"/>
<stop offset="1" stop-color="#4CA9EC"/>
</linearGradient>
<linearGradient id="paint5_linear_0_364" x1="-10" y1="-9.26034e-07" x2="93" y2="71" gradientUnits="userSpaceOnUse">
<stop stop-color="#AF0FFB"/>
<stop offset="1" stop-color="#4CA9EC"/>
</linearGradient>
<linearGradient id="paint6_linear_0_364" x1="-10" y1="-9.26034e-07" x2="93" y2="71" gradientUnits="userSpaceOnUse">
<stop stop-color="#AF0FFB"/>
<stop offset="1" stop-color="#4CA9EC"/>
</linearGradient>
<linearGradient id="paint7_linear_0_364" x1="-10" y1="-9.26034e-07" x2="93" y2="71" gradientUnits="userSpaceOnUse">
<stop stop-color="#AF0FFB"/>
<stop offset="1" stop-color="#4CA9EC"/>
</linearGradient>
<linearGradient id="paint8_linear_0_364" x1="-10" y1="-9.26034e-07" x2="93" y2="71" gradientUnits="userSpaceOnUse">
<stop stop-color="#AF0FFB"/>
<stop offset="1" stop-color="#4CA9EC"/>
</linearGradient>
<linearGradient id="paint9_linear_0_364" x1="-10" y1="-9.26034e-07" x2="93" y2="71" gradientUnits="userSpaceOnUse">
<stop stop-color="#AF0FFB"/>
<stop offset="1" stop-color="#4CA9EC"/>
</linearGradient>
<linearGradient id="paint10_linear_0_364" x1="-10" y1="-9.26034e-07" x2="93" y2="71" gradientUnits="userSpaceOnUse">
<stop stop-color="#AF0FFB"/>
<stop offset="1" stop-color="#4CA9EC"/>
</linearGradient>
<linearGradient id="paint11_linear_0_364" x1="-10" y1="-9.26034e-07" x2="93" y2="71" gradientUnits="userSpaceOnUse">
<stop stop-color="#AF0FFB"/>
<stop offset="1" stop-color="#4CA9EC"/>
</linearGradient>
<linearGradient id="paint12_linear_0_364" x1="-10" y1="-9.26034e-07" x2="93" y2="71" gradientUnits="userSpaceOnUse">
<stop stop-color="#AF0FFB"/>
<stop offset="1" stop-color="#4CA9EC"/>
</linearGradient>
<linearGradient id="paint13_linear_0_364" x1="-10" y1="-9.26034e-07" x2="93" y2="71" gradientUnits="userSpaceOnUse">
<stop stop-color="#AF0FFB"/>
<stop offset="1" stop-color="#4CA9EC"/>
</linearGradient>
<linearGradient id="paint14_linear_0_364" x1="-10" y1="-9.26034e-07" x2="93" y2="71" gradientUnits="userSpaceOnUse">
<stop stop-color="#AF0FFB"/>
<stop offset="1" stop-color="#4CA9EC"/>
</linearGradient>
<linearGradient id="paint15_linear_0_364" x1="-10" y1="-9.26034e-07" x2="93" y2="71" gradientUnits="userSpaceOnUse">
<stop stop-color="#AF0FFB"/>
<stop offset="1" stop-color="#4CA9EC"/>
</linearGradient>
<linearGradient id="paint16_linear_0_364" x1="-10" y1="-9.26034e-07" x2="93" y2="71" gradientUnits="userSpaceOnUse">
<stop stop-color="#AF0FFB"/>
<stop offset="1" stop-color="#4CA9EC"/>
</linearGradient>
<linearGradient id="paint17_linear_0_364" x1="-10" y1="-9.26034e-07" x2="93" y2="71" gradientUnits="userSpaceOnUse">
<stop stop-color="#AF0FFB"/>
<stop offset="1" stop-color="#4CA9EC"/>
</linearGradient>
<linearGradient id="paint18_linear_0_364" x1="-10" y1="-9.26034e-07" x2="93" y2="71" gradientUnits="userSpaceOnUse">
<stop stop-color="#AF0FFB"/>
<stop offset="1" stop-color="#4CA9EC"/>
</linearGradient>
<linearGradient id="paint19_linear_0_364" x1="-10" y1="-9.26034e-07" x2="93" y2="71" gradientUnits="userSpaceOnUse">
<stop stop-color="#AF0FFB"/>
<stop offset="1" stop-color="#4CA9EC"/>
</linearGradient>
<linearGradient id="paint20_linear_0_364" x1="-10" y1="-9.26034e-07" x2="93" y2="71" gradientUnits="userSpaceOnUse">
<stop stop-color="#AF0FFB"/>
<stop offset="1" stop-color="#4CA9EC"/>
</linearGradient>
</defs>
</svg>
